<svg width="40" height="40" viewBox="0 0 40 40" fill="none" xmlns="http://www.w3.org/2000/svg">
<path d="M25.8333 9.16667C27.6667 9.16667 29.1667 7.66667 29.1667 5.83333C29.1667 4 27.6667 2.5 25.8333 2.5C24 2.5 22.5 4 22.5 5.83333C22.5 7.66667 24 9.16667 25.8333 9.16667ZM8.33333 20C3.66667 20 0 23.6667 0 28.3333C0 33 3.66667 36.6667 8.33333 36.6667C13 36.6667 16.6667 33 16.6667 28.3333C16.6667 23.6667 13 20 8.33333 20ZM8.33333 34.1667C5.16667 34.1667 2.5 31.5 2.5 28.3333C2.5 25.1667 5.16667 22.5 8.33333 22.5C11.5 22.5 14.1667 25.1667 14.1667 28.3333C14.1667 31.5 11.5 34.1667 8.33333 34.1667ZM18 17.5L22 13.5L23.3333 14.8333C25.5 17 28.3333 18.3333 31.8333 18.3333V15C29.3333 15 27.3333 14 25.8333 12.5L22.6667 9.33333C21.8333 8.66667 21 8.33333 20 8.33333C19 8.33333 18.1667 8.66667 17.6667 9.33333L13 14C12.3333 14.6667 12 15.5 12 16.3333C12 17.3333 12.3333 18.1667 13 18.6667L18.3333 23.3333V31.6667H21.6667V21.3333L18 17.5ZM31.6667 20C27 20 23.3333 23.6667 23.3333 28.3333C23.3333 33 27 36.6667 31.6667 36.6667C36.3333 36.6667 40 33 40 28.3333C40 23.6667 36.3333 20 31.6667 20ZM31.6667 34.1667C28.5 34.1667 25.8333 31.5 25.8333 28.3333C25.8333 25.1667 28.5 22.5 31.6667 22.5C34.8333 22.5 37.5 25.1667 37.5 28.3333C37.5 31.5 34.8333 34.1667 31.6667 34.1667Z" fill="black"/>
</svg>
