<svg width="40" height="40" viewBox="0 0 40 40" fill="none" xmlns="http://www.w3.org/2000/svg">
<path d="M22.4833 9.13334C24.3166 9.13334 25.8166 7.63334 25.8166 5.80001C25.8166 3.96667 24.3166 2.46667 22.4833 2.46667C20.65 2.46667 19.15 3.96667 19.15 5.80001C19.15 7.63334 20.65 9.13334 22.4833 9.13334ZM16.4833 32.3L18.15 24.9667L21.65 28.3V38.3H24.9833V25.8L21.4833 22.4667L22.4833 17.4667C24.65 19.9667 27.9833 21.6333 31.65 21.6333V18.3C28.4833 18.3 25.8166 16.6333 24.4833 14.3L22.8166 11.6333C22.15 10.6333 21.15 9.96667 19.9833 9.96667C19.4833 9.96667 19.15 10.1333 18.65 10.1333L9.98332 13.8V21.6333H13.3166V15.9667L16.3166 14.8L13.65 28.3L5.48332 26.6333L4.81665 29.9667L16.4833 32.3Z" fill="black"/>
</svg>
