<svg width="45" height="52" viewBox="0 0 45 52" fill="none" xmlns="http://www.w3.org/2000/svg">
<g clip-path="url(#clip0_52_554)">
<path d="M13.5226 39.8051L14.5026 42.9034L17.1342 40.9969L14.6877 33.2619L30.4589 21.8364L32.9054 29.5714L35.537 27.6649L34.557 24.5666L37.1886 22.6601L35.7221 18.0234L38.3537 16.1169L37.3737 13.0186L34.7421 14.9251L33.2756 10.2884L30.644 12.1949L29.664 9.09656L27.0324 11.003L29.4789 18.738L13.7077 30.1636L11.2612 22.4286L8.62963 24.3351L9.6096 27.4334L6.978 29.3399L8.44451 33.9766L5.81292 35.8831L6.79288 38.9814L9.42448 37.0749L10.891 41.7116L13.5226 39.8051Z" fill="black"/>
</g>
<defs>
<clipPath id="clip0_52_554">
<rect width="44.2263" height="31.9145" fill="white" transform="translate(44.1667 10.0015) rotate(108.263)"/>
</clipPath>
</defs>
</svg>
