<svg id="visual" viewBox="0 0 900 600" width="900" height="600" xmlns="http://www.w3.org/2000/svg" xmlns:xlink="http://www.w3.org/1999/xlink" version="1.1"><path d="M0 375L21.5 352C43 329 86 283 128.8 261.5C171.7 240 214.3 243 257.2 253.2C300 263.3 343 280.7 385.8 278.8C428.7 277 471.3 256 514.2 266.7C557 277.3 600 319.7 642.8 332C685.7 344.3 728.3 326.7 771.2 308C814 289.3 857 269.7 878.5 259.8L900 250L900 601L878.5 601C857 601 814 601 771.2 601C728.3 601 685.7 601 642.8 601C600 601 557 601 514.2 601C471.3 601 428.7 601 385.8 601C343 601 300 601 257.2 601C214.3 601 171.7 601 128.8 601C86 601 43 601 21.5 601L0 601Z" fill="#b8a0eb"></path><path d="M0 458L21.5 454C43 450 86 442 128.8 432.3C171.7 422.7 214.3 411.3 257.2 399.3C300 387.3 343 374.7 385.8 373.3C428.7 372 471.3 382 514.2 395.2C557 408.3 600 424.7 642.8 433.7C685.7 442.7 728.3 444.3 771.2 441C814 437.7 857 429.3 878.5 425.2L900 421L900 601L878.5 601C857 601 814 601 771.2 601C728.3 601 685.7 601 642.8 601C600 601 557 601 514.2 601C471.3 601 428.7 601 385.8 601C343 601 300 601 257.2 601C214.3 601 171.7 601 128.8 601C86 601 43 601 21.5 601L0 601Z" fill="#5a0777"></path></svg>