<svg width="90" height="90" viewBox="0 0 90 90" fill="none" xmlns="http://www.w3.org/2000/svg">
<path d="M26.25 63.75C32.4632 63.75 37.5 58.7132 37.5 52.5C37.5 46.2868 32.4632 41.25 26.25 41.25C20.0368 41.25 15 46.2868 15 52.5C15 58.7132 20.0368 63.75 26.25 63.75Z" fill="#5A0777"/>
<path d="M41.25 33.75C47.4632 33.75 52.5 28.7132 52.5 22.5C52.5 16.2868 47.4632 11.25 41.25 11.25C35.0368 11.25 30 16.2868 30 22.5C30 28.7132 35.0368 33.75 41.25 33.75Z" fill="#5A0777"/>
<path d="M62.25 77.25C68.4632 77.25 73.5 72.2132 73.5 66C73.5 59.7868 68.4632 54.75 62.25 54.75C56.0368 54.75 51 59.7868 51 66C51 72.2132 56.0368 77.25 62.25 77.25Z" fill="#5A0777"/>
</svg>
