<svg width="47" height="40" viewBox="0 0 47 40" fill="none" xmlns="http://www.w3.org/2000/svg">
<path d="M21.1723 8.33333C23.6619 8.33333 25.6802 6.46785 25.6802 4.16667C25.6802 1.86548 23.6619 0 21.1723 0C18.6827 0 16.6644 1.86548 16.6644 4.16667C16.6644 6.46785 18.6827 8.33333 21.1723 8.33333Z" fill="#BF8D0B"/>
<path d="M41.4576 25V20.8333C36.4088 20.8333 32.0812 18.8333 28.8356 15.25L25.8153 11.9167C24.9588 10.9583 23.6966 10.4167 22.3668 10.4167H20.0002C18.6704 10.4167 17.4082 10.9583 16.5517 11.9167L13.5314 15.25C10.2632 18.8333 5.93565 20.8333 0.886841 20.8333V25C7.13023 25 12.5847 22.5625 16.6644 18.2292V22.9167L7.9191 26.1458C6.40897 26.7083 5.3947 28.0833 5.3947 29.6042C5.3947 31.6667 7.19785 33.3333 9.42924 33.3333H14.4104V32.2917C14.4104 29.4167 16.9348 27.0833 20.0453 27.0833H26.807C27.4381 27.0833 27.934 27.5417 27.934 28.125C27.934 28.7083 27.4381 29.1667 26.807 29.1667H20.0453C18.1745 29.1667 16.6644 30.5625 16.6644 32.2917V33.3333H32.9152C35.1466 33.3333 36.9497 31.6667 36.9497 29.6042C36.9497 28.0833 35.9355 26.7083 34.4253 26.1458L25.6801 22.9167V18.2292C29.7597 22.5625 35.2142 25 41.4576 25Z" fill="#BF8D0B"/>
</svg>
