<svg width="39" height="40" viewBox="0 0 39 40" fill="none" xmlns="http://www.w3.org/2000/svg">
<path d="M31.1025 21.5667C31.1675 21.0667 31.2 20.55 31.2 20C31.2 19.4667 31.1675 18.9333 31.0862 18.4333L34.385 15.8C34.6775 15.5667 34.7588 15.1167 34.58 14.7833L31.46 9.25C31.265 8.88333 30.8587 8.76667 30.5012 8.88333L26.6175 10.4833C25.805 9.85 24.9437 9.31667 23.985 8.91667L23.4 4.68333C23.335 4.28333 23.01 4 22.62 4H16.38C15.99 4 15.6812 4.28333 15.6162 4.68333L15.0312 8.91667C14.0725 9.31667 13.195 9.86667 12.3987 10.4833L8.515 8.88333C8.1575 8.75 7.75125 8.88333 7.55625 9.25L4.4525 14.7833C4.2575 15.1333 4.3225 15.5667 4.6475 15.8L7.94625 18.4333C7.865 18.9333 7.8 19.4833 7.8 20C7.8 20.5167 7.8325 21.0667 7.91375 21.5667L4.615 24.2C4.3225 24.4333 4.24125 24.8833 4.42 25.2167L7.54 30.75C7.735 31.1167 8.14125 31.2333 8.49875 31.1167L12.3825 29.5167C13.195 30.15 14.0562 30.6833 15.015 31.0833L15.6 35.3167C15.6812 35.7167 15.99 36 16.38 36H22.62C23.01 36 23.335 35.7167 23.3837 35.3167L23.9687 31.0833C24.9275 30.6833 25.805 30.15 26.6012 29.5167L30.485 31.1167C30.8425 31.25 31.2487 31.1167 31.4437 30.75L34.5637 25.2167C34.7587 24.85 34.6775 24.4333 34.3687 24.2L31.1025 21.5667ZM19.5 26C16.2825 26 13.65 23.3 13.65 20C13.65 16.7 16.2825 14 19.5 14C22.7175 14 25.35 16.7 25.35 20C25.35 23.3 22.7175 26 19.5 26Z" fill="#646464"/>
</svg>
