<svg width="41" height="39" viewBox="0 0 41 39" fill="none" xmlns="http://www.w3.org/2000/svg">
<path d="M20.5 35.75C28.9904 35.75 35.875 29.2013 35.875 21.125C27.3846 21.125 20.5 27.6737 20.5 35.75ZM9.56667 16.6562C9.56667 18.8988 11.48 20.7188 13.8375 20.7188C14.7429 20.7188 15.5629 20.4587 16.2633 20.0037L16.2292 20.3125C16.2292 22.555 18.1425 24.375 20.5 24.375C22.8575 24.375 24.7708 22.555 24.7708 20.3125L24.7367 20.0037C25.42 20.4587 26.2571 20.7188 27.1625 20.7188C29.52 20.7188 31.4333 18.8988 31.4333 16.6562C31.4333 15.0312 30.4254 13.65 28.9904 13C30.4254 12.35 31.4333 10.9688 31.4333 9.34375C31.4333 7.10125 29.52 5.28125 27.1625 5.28125C26.2571 5.28125 25.4371 5.54125 24.7367 5.99625L24.7708 5.6875C24.7708 3.445 22.8575 1.625 20.5 1.625C18.1425 1.625 16.2292 3.445 16.2292 5.6875L16.2633 5.99625C15.58 5.54125 14.7429 5.28125 13.8375 5.28125C11.48 5.28125 9.56667 7.10125 9.56667 9.34375C9.56667 10.9688 10.5746 12.35 12.0096 13C10.5746 13.65 9.56667 15.0312 9.56667 16.6562ZM20.5 8.9375C22.8575 8.9375 24.7708 10.7575 24.7708 13C24.7708 15.2425 22.8575 17.0625 20.5 17.0625C18.1425 17.0625 16.2292 15.2425 16.2292 13C16.2292 10.7575 18.1425 8.9375 20.5 8.9375ZM5.125 21.125C5.125 29.2013 12.0096 35.75 20.5 35.75C20.5 27.6737 13.6154 21.125 5.125 21.125Z" fill="#29F33D"/>
</svg>
